<svg xmlns="http://www.w3.org/2000/svg" xmlns:xlink="http://www.w3.org/1999/xlink" style="vertical-align:-.755ex" width="7.955ex" height="2.634ex" viewBox="0 -809.3 3425 1134.2"><defs><path id="a" stroke-width="1" d="M287 628q0 7-57 9-24 0-31 1t-7 10q0 1 2 11 6 20 9 22t194 2q190-1 203-3 64-11 107-49t44-101q0-77-66-141-69-68-178-86-7-1-105-2h-95l-30-119Q247 66 247 59q0-4 1-5t7-4 17-2 33-2h31q6-9 6-11 0-16-7-30-5-5-16-5-3 0-37 1T182 2H87Q54 2 51 1 33 1 33 11q0 2 3 14 4 16 8 18t23 3q27 0 60 3 14 3 19 12 3 4 72 278t69 289zm358-74q0 13-2 21t-9 22-25 22-49 16q-7 1-80 2h-35q-18 0-29-1t-12 0q-13-1-18-9-2-6-19-77t-35-138-18-68q0-2 81-2h35q112 0 160 50 27 27 41 79t14 83z"/><path id="b" stroke-width="1" d="M94 250q0 69 10 131t23 107 37 88 38 67 42 52 33 34 25 21h17q14 0 14-9 0-3-17-21t-41-53-49-86-42-138-17-193 17-192 41-139 49-86 42-53 17-21q0-9-15-9h-16l-28 24q-94 85-137 212T94 250z"/><path id="c" stroke-width="1" d="M66 637H49q-5 0-10 1t-7 3-2 6 3 17 9 18q2 1 14 1 48-3 109-3 123 0 141 3h10q6-6 6-9t-2-18q-4-13-10-19h-12q-56 0-56-13 0-5 50-147t51-144l3 3q4 4 12 13t21 24 32 37 43 51q92 107 107 126t16 31q0 16-32 19-17 0-17 10 0 2 2 14 3 15 5 18t14 4q2 0 29-1t79-2q27 0 56 1t33 1q17 0 17-9 0-4-3-16t-5-14q-2-6-21-6-72-5-117-50-9-9-140-163L348 273l-26-104Q295 62 295 57q0-11 68-11 16 0 21-1t6-10q0-2-2-12-4-17-6-19t-16-3h-42q-37 0-92 1h-94q-32 0-36-1-18 0-18 8 0 5 3 15l2 6q1 3 1 5t1 4 2 3 3 2 5 1 6 0 9 1 13 0q39 1 51 4t18 13q3 5 29 108l25 103-123 349-2 2-2 2q-1 1-3 2t-4 2-5 2-8 1-9 1-13 1-17 1z"/><path id="d" stroke-width="1" d="M139-249h-2q-12 0-18 14v486l1 486q10 13 19 13 13 0 20-15v-970q-8-14-18-14h-2z"/><path id="e" stroke-width="1" d="M42 0h-2Q26 0 26 11q0 4 3 16 4 14 7 16t19 3q86 3 135 52 10 10 116 126t105 118Q302 620 297 625q-9 11-63 12h-28q-6 6-6 8t2 19q4 13 10 19h14q34-2 121-2h61q28 0 45 1t20 0q17 0 17-11 0-1-2-13-4-15-7-18t-16-3q-31-3-54-17l77-194 53 59q105 113 105 125 0 18-24 25-5 0-13 2-15 0-15 11 0 2 2 16 4 13 10 19h37q24 0 54-2t41-1q90 0 99 3h8q7-7 7-11-2-25-12-35h-16q-34-1-61-9t-41-17-24-18l-11-9q0 1-95-104l-87-96q0-1 31-80t65-162 37-86q10-9 61-10 35 0 35-9 0-2-2-14-4-16-7-19t-14-3h-33q-30 0-89 1h-93q-32 0-35-1-17 0-17 9 0 1 2 15 2 10 4 14t5 5 9 2 16 1 26 7q17 8 17 10-1 0-47 117l-47 118Q241 95 236 84q-4-8-4-12 0-19 29-25h6q5 0 6-1h4q1 0 3-1t3-3 1-7q0-9-2-16-3-13-6-15t-15-3h-18q-15 0-42 1t-59 0Q64 2 42 0z"/><path id="f" stroke-width="1" d="M60 749l4 1h22l28-24q94-85 137-212t43-264q0-68-10-131T261 12t-37-88-38-67-41-51-32-33-23-19l-4-4H63q-3 0-5 3t-3 9q1 1 11 13Q221-64 221 250T66 725q-10 12-11 13 0 8 5 11z"/></defs><g fill="currentColor" stroke="currentColor" stroke-width="0" transform="scale(1 -1)"><use xlink:href="#a"/><use x="751" xlink:href="#b"/><use x="1141" xlink:href="#c"/><use x="1904" xlink:href="#d"/><use x="2183" xlink:href="#e"/><use x="3035" xlink:href="#f"/></g></svg>